<svg xmlns="http://www.w3.org/2000/svg" xmlns:xlink="http://www.w3.org/1999/xlink" width="500" zoomAndPan="magnify" viewBox="0 0 375 374.999991" height="500" preserveAspectRatio="xMidYMid meet" version="1.0"><defs><clipPath id="0fde052e6d"><path d="M 8 6.125 L 366.960938 6.125 L 366.960938 369.125 L 8 369.125 Z M 8 6.125 " clip-rule="nonzero"/></clipPath></defs><g clip-path="url(#0fde052e6d)"><path fill="#5ce1e6" d="M 284.5 205.570312 C 271.855469 205.570312 259.875 208.460938 249.179688 213.628906 C 236.71875 204.304688 222.800781 196.859375 207.824219 191.722656 C 237.613281 174.535156 257.726562 142.335938 257.726562 105.503906 C 257.726562 50.667969 213.183594 6.054688 158.433594 6.054688 C 103.683594 6.054688 59.140625 50.667969 59.140625 105.503906 C 59.140625 142.613281 79.550781 175.023438 109.710938 192.109375 C 50.816406 212.789062 8.433594 269.167969 8.433594 335.34375 L 29.710938 335.34375 C 29.710938 263.449219 87.855469 204.957031 159.320312 204.957031 C 185.488281 204.957031 209.851562 212.828125 230.242188 226.304688 C 213.429688 241.304688 202.816406 263.121094 202.816406 287.390625 C 202.816406 332.5 239.460938 369.203125 284.503906 369.203125 C 329.539062 369.203125 366.183594 332.5 366.183594 287.390625 C 366.179688 242.277344 329.535156 205.570312 284.5 205.570312 Z M 80.414062 105.5 C 80.414062 62.414062 115.410156 27.359375 158.429688 27.359375 C 201.449219 27.359375 236.449219 62.414062 236.449219 105.5 C 236.449219 148.589844 201.449219 183.640625 158.429688 183.640625 C 115.414062 183.640625 80.414062 148.589844 80.414062 105.5 Z M 284.5 347.886719 C 251.183594 347.886719 224.089844 320.746094 224.089844 287.386719 C 224.089844 254.023438 251.1875 226.882812 284.5 226.882812 C 317.808594 226.882812 344.902344 254.027344 344.902344 287.386719 C 344.902344 320.746094 317.804688 347.886719 284.5 347.886719 Z M 284.5 347.886719 " fill-opacity="1" fill-rule="nonzero"/></g><path fill="#5ce1e6" d="M 295.136719 246.097656 L 273.859375 246.097656 L 273.859375 276.734375 L 243.273438 276.734375 L 243.273438 298.042969 L 273.859375 298.042969 L 273.859375 328.679688 L 295.136719 328.679688 L 295.136719 298.042969 L 325.722656 298.042969 L 325.722656 276.734375 L 295.136719 276.734375 Z M 295.136719 246.097656 " fill-opacity="1" fill-rule="nonzero"/></svg>