<svg xmlns="http://www.w3.org/2000/svg" xmlns:xlink="http://www.w3.org/1999/xlink" width="500" zoomAndPan="magnify" viewBox="0 0 375 374.999991" height="500" preserveAspectRatio="xMidYMid meet" version="1.0"><defs><g/><clipPath id="d7c4c99ce2"><path d="M 6.460938 88.132812 L 323 88.132812 L 323 172.265625 L 6.460938 172.265625 Z M 6.460938 88.132812 " clip-rule="nonzero"/></clipPath><clipPath id="4851d541d3"><path d="M 23.710938 88.132812 L 306.300781 88.132812 C 315.828125 88.132812 323.550781 95.855469 323.550781 105.382812 L 323.550781 154.816406 C 323.550781 164.34375 315.828125 172.066406 306.300781 172.066406 L 23.710938 172.066406 C 14.183594 172.066406 6.460938 164.34375 6.460938 154.816406 L 6.460938 105.382812 C 6.460938 95.855469 14.183594 88.132812 23.710938 88.132812 " clip-rule="nonzero"/></clipPath><clipPath id="5aa30a8f48"><path d="M 302 105.089844 L 308 105.089844 L 308 135 L 302 135 Z M 302 105.089844 " clip-rule="nonzero"/></clipPath><clipPath id="186ecfb3e8"><path d="M 248.792969 156 L 279 156 L 279 162 L 248.792969 162 Z M 248.792969 156 " clip-rule="nonzero"/></clipPath><clipPath id="f31d612181"><path d="M 259 140 L 368.863281 140 L 368.863281 287.050781 L 259 287.050781 Z M 259 140 " clip-rule="nonzero"/></clipPath></defs><g clip-path="url(#d7c4c99ce2)"><g clip-path="url(#4851d541d3)"><path fill="#5ce1e6" d="M 6.460938 88.132812 L 322.691406 88.132812 L 322.691406 172.265625 L 6.460938 172.265625 Z M 6.460938 88.132812 " fill-opacity="1" fill-rule="nonzero"/></g></g><g fill="#ffffff" fill-opacity="1"><g transform="translate(103.748201, 138.884068)"><g><path d="M 9.359375 0.28125 C 7.753906 0.28125 6.363281 -0.0820312 5.1875 -0.8125 C 4.007812 -1.550781 3.101562 -2.660156 2.46875 -4.140625 C 1.832031 -5.628906 1.515625 -7.460938 1.515625 -9.640625 C 1.515625 -11.835938 1.894531 -13.675781 2.65625 -15.15625 C 3.425781 -16.632812 4.488281 -17.734375 5.84375 -18.453125 C 7.207031 -19.179688 8.785156 -19.546875 10.578125 -19.546875 C 12.421875 -19.546875 13.992188 -19.203125 15.296875 -18.515625 C 16.597656 -17.835938 17.507812 -16.820312 18.03125 -15.46875 L 15.25 -13.78125 L 14.921875 -13.796875 C 14.523438 -14.648438 13.96875 -15.273438 13.25 -15.671875 C 12.539062 -16.066406 11.648438 -16.265625 10.578125 -16.265625 C 8.910156 -16.265625 7.632812 -15.738281 6.75 -14.6875 C 5.875 -13.644531 5.4375 -11.960938 5.4375 -9.640625 C 5.4375 -7.304688 5.847656 -5.613281 6.671875 -4.5625 C 7.492188 -3.507812 8.710938 -2.984375 10.328125 -2.984375 C 11.710938 -2.984375 12.734375 -3.296875 13.390625 -3.921875 C 14.054688 -4.546875 14.390625 -5.472656 14.390625 -6.703125 L 14.390625 -7.546875 L 9.828125 -7.546875 L 9.828125 -10.640625 L 18.171875 -10.640625 L 18.171875 0 L 14.53125 0 L 14.53125 -2.578125 L 14.25 -2.625 C 13.851562 -1.695312 13.253906 -0.976562 12.453125 -0.46875 C 11.648438 0.03125 10.617188 0.28125 9.359375 0.28125 Z M 9.359375 0.28125 "/></g></g></g><g fill="#ffffff" fill-opacity="1"><g transform="translate(123.839035, 138.884068)"><g><path d="M 14.375 -6.453125 L 5.015625 -6.453125 C 5.128906 -5.179688 5.492188 -4.257812 6.109375 -3.6875 C 6.722656 -3.113281 7.5625 -2.828125 8.625 -2.828125 C 9.457031 -2.828125 10.132812 -2.976562 10.65625 -3.28125 C 11.175781 -3.59375 11.59375 -4.066406 11.90625 -4.703125 L 12.1875 -4.703125 L 14.609375 -3.15625 C 14.128906 -2.132812 13.410156 -1.304688 12.453125 -0.671875 C 11.492188 -0.0351562 10.21875 0.28125 8.625 0.28125 C 7.125 0.28125 5.820312 -0.00390625 4.71875 -0.578125 C 3.625 -1.148438 2.78125 -2 2.1875 -3.125 C 1.601562 -4.257812 1.3125 -5.640625 1.3125 -7.265625 C 1.3125 -8.921875 1.617188 -10.3125 2.234375 -11.4375 C 2.859375 -12.570312 3.703125 -13.414062 4.765625 -13.96875 C 5.835938 -14.53125 7.035156 -14.8125 8.359375 -14.8125 C 10.410156 -14.8125 11.984375 -14.265625 13.078125 -13.171875 C 14.171875 -12.085938 14.71875 -10.492188 14.71875 -8.390625 C 14.71875 -7.617188 14.691406 -7.023438 14.640625 -6.609375 Z M 11.234375 -8.8125 C 11.203125 -9.914062 10.945312 -10.71875 10.46875 -11.21875 C 9.988281 -11.726562 9.285156 -11.984375 8.359375 -11.984375 C 6.515625 -11.984375 5.429688 -10.925781 5.109375 -8.8125 Z M 11.234375 -8.8125 "/></g></g></g><g fill="#ffffff" fill-opacity="1"><g transform="translate(139.635044, 138.884068)"><g><path d="M 2.09375 0 L 2.09375 -14.546875 L 5.609375 -14.546875 L 5.609375 -12.40625 L 5.875 -12.34375 C 6.78125 -13.988281 8.25 -14.8125 10.28125 -14.8125 C 11.957031 -14.8125 13.1875 -14.351562 13.96875 -13.4375 C 14.757812 -12.53125 15.15625 -11.203125 15.15625 -9.453125 L 15.15625 0 L 11.515625 0 L 11.515625 -9 C 11.515625 -9.96875 11.316406 -10.664062 10.921875 -11.09375 C 10.535156 -11.519531 9.921875 -11.734375 9.078125 -11.734375 C 8.023438 -11.734375 7.207031 -11.394531 6.625 -10.71875 C 6.039062 -10.039062 5.75 -8.976562 5.75 -7.53125 L 5.75 0 Z M 2.09375 0 "/></g></g></g><g fill="#ffffff" fill-opacity="1"><g transform="translate(156.656255, 138.884068)"><g><path d="M 14.375 -6.453125 L 5.015625 -6.453125 C 5.128906 -5.179688 5.492188 -4.257812 6.109375 -3.6875 C 6.722656 -3.113281 7.5625 -2.828125 8.625 -2.828125 C 9.457031 -2.828125 10.132812 -2.976562 10.65625 -3.28125 C 11.175781 -3.59375 11.59375 -4.066406 11.90625 -4.703125 L 12.1875 -4.703125 L 14.609375 -3.15625 C 14.128906 -2.132812 13.410156 -1.304688 12.453125 -0.671875 C 11.492188 -0.0351562 10.21875 0.28125 8.625 0.28125 C 7.125 0.28125 5.820312 -0.00390625 4.71875 -0.578125 C 3.625 -1.148438 2.78125 -2 2.1875 -3.125 C 1.601562 -4.257812 1.3125 -5.640625 1.3125 -7.265625 C 1.3125 -8.921875 1.617188 -10.3125 2.234375 -11.4375 C 2.859375 -12.570312 3.703125 -13.414062 4.765625 -13.96875 C 5.835938 -14.53125 7.035156 -14.8125 8.359375 -14.8125 C 10.410156 -14.8125 11.984375 -14.265625 13.078125 -13.171875 C 14.171875 -12.085938 14.71875 -10.492188 14.71875 -8.390625 C 14.71875 -7.617188 14.691406 -7.023438 14.640625 -6.609375 Z M 11.234375 -8.8125 C 11.203125 -9.914062 10.945312 -10.71875 10.46875 -11.21875 C 9.988281 -11.726562 9.285156 -11.984375 8.359375 -11.984375 C 6.515625 -11.984375 5.429688 -10.925781 5.109375 -8.8125 Z M 11.234375 -8.8125 "/></g></g></g><g fill="#ffffff" fill-opacity="1"><g transform="translate(172.452263, 138.884068)"><g><path d="M 2.09375 0 L 2.09375 -14.546875 L 5.640625 -14.546875 L 5.640625 -12.375 L 5.921875 -12.328125 C 6.273438 -13.140625 6.734375 -13.734375 7.296875 -14.109375 C 7.867188 -14.484375 8.566406 -14.671875 9.390625 -14.671875 C 10.210938 -14.671875 10.835938 -14.53125 11.265625 -14.25 L 10.65625 -11.09375 L 10.375 -11.046875 C 10.132812 -11.140625 9.90625 -11.207031 9.6875 -11.25 C 9.46875 -11.300781 9.203125 -11.328125 8.890625 -11.328125 C 7.867188 -11.328125 7.085938 -10.96875 6.546875 -10.25 C 6.015625 -9.53125 5.75 -8.378906 5.75 -6.796875 L 5.75 0 Z M 2.09375 0 "/></g></g></g><g fill="#ffffff" fill-opacity="1"><g transform="translate(183.848052, 138.884068)"><g><path d="M 5.671875 0.28125 C 4.734375 0.28125 3.921875 0.109375 3.234375 -0.234375 C 2.554688 -0.578125 2.03125 -1.082031 1.65625 -1.75 C 1.289062 -2.414062 1.109375 -3.210938 1.109375 -4.140625 C 1.109375 -5.003906 1.289062 -5.726562 1.65625 -6.3125 C 2.03125 -6.894531 2.601562 -7.375 3.375 -7.75 C 4.144531 -8.125 5.15625 -8.410156 6.40625 -8.609375 C 7.28125 -8.742188 7.941406 -8.894531 8.390625 -9.0625 C 8.847656 -9.238281 9.15625 -9.429688 9.3125 -9.640625 C 9.46875 -9.847656 9.546875 -10.113281 9.546875 -10.4375 C 9.546875 -10.90625 9.378906 -11.257812 9.046875 -11.5 C 8.722656 -11.75 8.1875 -11.875 7.4375 -11.875 C 6.625 -11.875 5.851562 -11.691406 5.125 -11.328125 C 4.394531 -10.972656 3.765625 -10.503906 3.234375 -9.921875 L 2.96875 -9.921875 L 1.4375 -12.21875 C 2.175781 -13.039062 3.078125 -13.675781 4.140625 -14.125 C 5.203125 -14.582031 6.363281 -14.8125 7.625 -14.8125 C 9.539062 -14.8125 10.929688 -14.398438 11.796875 -13.578125 C 12.660156 -12.765625 13.09375 -11.609375 13.09375 -10.109375 L 13.09375 -3.796875 C 13.09375 -3.148438 13.378906 -2.828125 13.953125 -2.828125 C 14.171875 -2.828125 14.382812 -2.863281 14.59375 -2.9375 L 14.78125 -2.890625 L 15.046875 -0.34375 C 14.835938 -0.207031 14.550781 -0.0976562 14.1875 -0.015625 C 13.832031 0.0664062 13.441406 0.109375 13.015625 0.109375 C 12.140625 0.109375 11.457031 -0.0546875 10.96875 -0.390625 C 10.488281 -0.722656 10.140625 -1.25 9.921875 -1.96875 L 9.65625 -1.984375 C 8.9375 -0.472656 7.609375 0.28125 5.671875 0.28125 Z M 6.828125 -2.453125 C 7.671875 -2.453125 8.34375 -2.734375 8.84375 -3.296875 C 9.351562 -3.867188 9.609375 -4.660156 9.609375 -5.671875 L 9.609375 -7.140625 L 9.359375 -7.203125 C 9.140625 -7.023438 8.851562 -6.875 8.5 -6.75 C 8.144531 -6.632812 7.632812 -6.519531 6.96875 -6.40625 C 6.175781 -6.269531 5.601562 -6.039062 5.25 -5.71875 C 4.90625 -5.40625 4.734375 -4.953125 4.734375 -4.359375 C 4.734375 -3.734375 4.914062 -3.257812 5.28125 -2.9375 C 5.65625 -2.613281 6.171875 -2.453125 6.828125 -2.453125 Z M 6.828125 -2.453125 "/></g></g></g><g fill="#ffffff" fill-opacity="1"><g transform="translate(199.169786, 138.884068)"><g><path d="M 10.03125 -3.46875 L 10.984375 -0.765625 C 10.585938 -0.441406 10.085938 -0.1875 9.484375 0 C 8.890625 0.1875 8.21875 0.28125 7.46875 0.28125 C 5.894531 0.28125 4.695312 -0.144531 3.875 -1 C 3.0625 -1.863281 2.65625 -3.113281 2.65625 -4.75 L 2.65625 -11.65625 L 0.4375 -11.65625 L 0.4375 -14.5625 L 2.65625 -14.5625 L 2.65625 -17.390625 L 6.296875 -17.984375 L 6.296875 -14.5625 L 10.421875 -14.5625 L 10.421875 -11.65625 L 6.296875 -11.65625 L 6.296875 -5.015625 C 6.296875 -4.285156 6.445312 -3.753906 6.75 -3.421875 C 7.050781 -3.097656 7.488281 -2.9375 8.0625 -2.9375 C 8.707031 -2.9375 9.269531 -3.113281 9.75 -3.46875 Z M 10.03125 -3.46875 "/></g></g></g><g fill="#ffffff" fill-opacity="1"><g transform="translate(210.46018, 138.884068)"><g><path d="M 14.375 -6.453125 L 5.015625 -6.453125 C 5.128906 -5.179688 5.492188 -4.257812 6.109375 -3.6875 C 6.722656 -3.113281 7.5625 -2.828125 8.625 -2.828125 C 9.457031 -2.828125 10.132812 -2.976562 10.65625 -3.28125 C 11.175781 -3.59375 11.59375 -4.066406 11.90625 -4.703125 L 12.1875 -4.703125 L 14.609375 -3.15625 C 14.128906 -2.132812 13.410156 -1.304688 12.453125 -0.671875 C 11.492188 -0.0351562 10.21875 0.28125 8.625 0.28125 C 7.125 0.28125 5.820312 -0.00390625 4.71875 -0.578125 C 3.625 -1.148438 2.78125 -2 2.1875 -3.125 C 1.601562 -4.257812 1.3125 -5.640625 1.3125 -7.265625 C 1.3125 -8.921875 1.617188 -10.3125 2.234375 -11.4375 C 2.859375 -12.570312 3.703125 -13.414062 4.765625 -13.96875 C 5.835938 -14.53125 7.035156 -14.8125 8.359375 -14.8125 C 10.410156 -14.8125 11.984375 -14.265625 13.078125 -13.171875 C 14.171875 -12.085938 14.71875 -10.492188 14.71875 -8.390625 C 14.71875 -7.617188 14.691406 -7.023438 14.640625 -6.609375 Z M 11.234375 -8.8125 C 11.203125 -9.914062 10.945312 -10.71875 10.46875 -11.21875 C 9.988281 -11.726562 9.285156 -11.984375 8.359375 -11.984375 C 6.515625 -11.984375 5.429688 -10.925781 5.109375 -8.8125 Z M 11.234375 -8.8125 "/></g></g></g><g clip-path="url(#5aa30a8f48)"><path fill="#000000" d="M 302.980469 132.292969 C 302.980469 133.574219 304.023438 134.617188 305.316406 134.617188 C 306.605469 134.617188 307.644531 133.574219 307.644531 132.292969 L 307.644531 107.417969 C 307.644531 106.136719 306.605469 105.09375 305.316406 105.09375 C 304.023438 105.09375 302.980469 106.136719 302.980469 107.417969 L 302.980469 132.292969 " fill-opacity="1" fill-rule="nonzero"/></g><path fill="#000000" d="M 285.578125 141.414062 C 286.484375 142.320312 287.964844 142.320312 288.875 141.414062 C 289.785156 140.503906 289.785156 139.027344 288.875 138.121094 L 271.261719 120.535156 C 270.351562 119.625 268.878906 119.625 267.960938 120.535156 C 267.054688 121.445312 267.054688 122.921875 267.960938 123.828125 L 285.578125 141.414062 " fill-opacity="1" fill-rule="nonzero"/><path fill="#000000" d="M 324.609375 141.414062 C 323.699219 142.320312 322.222656 142.320312 321.3125 141.414062 C 320.398438 140.503906 320.398438 139.027344 321.3125 138.121094 L 338.925781 120.535156 C 339.835938 119.625 341.304688 119.625 342.21875 120.535156 C 343.128906 121.445312 343.128906 122.921875 342.21875 123.828125 L 324.609375 141.414062 " fill-opacity="1" fill-rule="nonzero"/><path fill="#000000" d="M 332.460938 161.15625 C 331.167969 161.15625 330.125 160.113281 330.125 158.828125 C 330.125 157.542969 331.167969 156.5 332.460938 156.5 L 357.367188 156.5 C 358.652344 156.5 359.699219 157.542969 359.699219 158.828125 C 359.699219 160.113281 358.652344 161.15625 357.367188 161.15625 L 332.460938 161.15625 " fill-opacity="1" fill-rule="nonzero"/><g clip-path="url(#186ecfb3e8)"><path fill="#000000" d="M 251.179688 161.15625 C 249.890625 161.15625 248.847656 160.113281 248.847656 158.828125 C 248.847656 157.542969 249.890625 156.5 251.179688 156.5 L 276.09375 156.5 C 277.378906 156.5 278.417969 157.542969 278.417969 158.828125 C 278.417969 160.113281 277.378906 161.15625 276.09375 161.15625 L 251.179688 161.15625 " fill-opacity="1" fill-rule="nonzero"/></g><g clip-path="url(#f31d612181)"><path fill="#000000" d="M 272.066406 207.195312 C 271.050781 207.195312 270.074219 207.5 269.234375 208.070312 L 267.578125 209.199219 C 266.464844 209.953125 265.714844 211.097656 265.464844 212.414062 C 265.214844 213.730469 265.496094 215.070312 266.25 216.183594 C 266.382812 216.371094 266.484375 216.574219 266.5625 216.789062 C 266.789062 217.414062 289.769531 279.429688 326.457031 281.480469 C 327.449219 281.535156 328.457031 281.566406 329.433594 281.566406 C 339.265625 281.566406 348.09375 278.679688 354.285156 273.4375 C 360.132812 268.476562 363.359375 261.710938 363.359375 254.375 C 363.359375 253.964844 363.347656 253.558594 363.328125 253.15625 C 363.324219 253.046875 363.324219 252.910156 363.339844 252.796875 C 363.351562 252.652344 363.359375 252.511719 363.359375 252.359375 L 363.359375 192.832031 C 363.359375 190.0625 361.105469 187.800781 358.324219 187.800781 L 356.324219 187.800781 C 353.550781 187.800781 351.289062 190.0625 351.289062 192.832031 C 351.289062 194.34375 350.058594 195.566406 348.546875 195.566406 C 347.027344 195.566406 345.800781 194.34375 345.800781 192.832031 C 345.800781 190.0625 343.539062 187.800781 340.765625 187.800781 L 338.757812 187.800781 C 335.984375 187.800781 333.726562 190.0625 333.726562 192.832031 C 333.726562 194.34375 332.5 195.566406 330.984375 195.566406 C 329.464844 195.566406 328.238281 194.34375 328.238281 192.832031 C 328.238281 190.0625 325.984375 187.800781 323.203125 187.800781 L 321.199219 187.800781 C 318.421875 187.800781 316.164062 190.0625 316.164062 192.832031 C 316.164062 194.34375 314.9375 195.566406 313.421875 195.566406 C 311.90625 195.566406 310.675781 194.34375 310.675781 192.832031 L 310.675781 151.460938 C 310.675781 148.695312 308.417969 146.433594 305.648438 146.433594 L 303.636719 146.433594 C 300.863281 146.433594 298.609375 148.695312 298.609375 151.460938 L 298.609375 233.292969 C 298.609375 234.5 297.820312 235.558594 296.664062 235.914062 C 295.515625 236.265625 294.269531 235.832031 293.589844 234.835938 L 276.230469 209.398438 C 275.289062 208.019531 273.738281 207.195312 272.066406 207.195312 Z M 329.433594 287.046875 C 328.355469 287.046875 327.246094 287.015625 326.148438 286.957031 C 309.316406 286.015625 292.75 273.808594 278.238281 251.652344 C 268.15625 236.265625 262.40625 221.34375 261.519531 218.96875 C 260.085938 216.707031 259.574219 214.035156 260.070312 211.398438 C 260.597656 208.632812 262.164062 206.25 264.488281 204.671875 L 266.144531 203.546875 C 267.898438 202.347656 269.949219 201.722656 272.066406 201.722656 C 275.546875 201.722656 278.808594 203.433594 280.765625 206.308594 L 293.113281 224.40625 L 293.113281 151.460938 C 293.113281 145.667969 297.835938 140.957031 303.636719 140.957031 L 305.648438 140.957031 C 311.445312 140.957031 316.164062 145.667969 316.164062 151.460938 L 316.164062 183.605469 C 317.664062 182.789062 319.375 182.324219 321.199219 182.324219 L 323.203125 182.324219 C 326.285156 182.324219 329.058594 183.652344 330.984375 185.761719 C 332.910156 183.652344 335.6875 182.324219 338.757812 182.324219 L 340.765625 182.324219 C 343.84375 182.324219 346.621094 183.652344 348.546875 185.761719 C 350.46875 183.652344 353.246094 182.324219 356.324219 182.324219 L 358.324219 182.324219 C 364.136719 182.324219 368.855469 187.035156 368.855469 192.832031 L 368.855469 252.359375 C 368.855469 252.632812 368.835938 252.878906 368.820312 253.09375 C 368.835938 253.519531 368.855469 253.945312 368.855469 254.375 C 368.855469 263.347656 364.941406 271.601562 357.832031 277.609375 C 350.648438 283.691406 340.566406 287.046875 329.433594 287.046875 " fill-opacity="1" fill-rule="nonzero"/></g><path fill="#ffffff" d="M 272.066406 207.195312 C 271.050781 207.195312 270.074219 207.5 269.234375 208.070312 L 267.578125 209.199219 C 266.464844 209.953125 265.714844 211.097656 265.464844 212.414062 C 265.214844 213.730469 265.496094 215.070312 266.25 216.183594 C 266.382812 216.371094 266.484375 216.574219 266.5625 216.789062 C 266.789062 217.414062 289.769531 279.429688 326.457031 281.480469 C 327.449219 281.535156 328.457031 281.566406 329.433594 281.566406 C 339.265625 281.566406 348.09375 278.679688 354.285156 273.4375 C 360.132812 268.476562 363.359375 261.710938 363.359375 254.375 C 363.359375 253.964844 363.347656 253.558594 363.328125 253.15625 C 363.324219 253.046875 363.324219 252.910156 363.339844 252.796875 C 363.351562 252.652344 363.359375 252.511719 363.359375 252.359375 L 363.359375 192.832031 C 363.359375 190.0625 361.105469 187.800781 358.324219 187.800781 L 356.324219 187.800781 C 353.550781 187.800781 351.289062 190.0625 351.289062 192.832031 C 351.289062 194.34375 350.058594 195.566406 348.546875 195.566406 C 347.027344 195.566406 345.800781 194.34375 345.800781 192.832031 C 345.800781 190.0625 343.539062 187.800781 340.765625 187.800781 L 338.757812 187.800781 C 335.984375 187.800781 333.726562 190.0625 333.726562 192.832031 C 333.726562 194.34375 332.5 195.566406 330.984375 195.566406 C 329.464844 195.566406 328.238281 194.34375 328.238281 192.832031 C 328.238281 190.0625 325.984375 187.800781 323.203125 187.800781 L 321.199219 187.800781 C 318.421875 187.800781 316.164062 190.0625 316.164062 192.832031 C 316.164062 194.34375 314.9375 195.566406 313.421875 195.566406 C 311.90625 195.566406 310.675781 194.34375 310.675781 192.832031 L 310.675781 151.460938 C 310.675781 148.695312 308.417969 146.433594 305.648438 146.433594 L 303.636719 146.433594 C 300.863281 146.433594 298.609375 148.695312 298.609375 151.460938 L 298.609375 233.292969 C 298.609375 234.5 297.820312 235.558594 296.664062 235.914062 C 295.515625 236.265625 294.269531 235.832031 293.589844 234.835938 L 276.230469 209.398438 C 275.289062 208.019531 273.738281 207.195312 272.066406 207.195312 " fill-opacity="1" fill-rule="nonzero"/></svg>