<svg xmlns="http://www.w3.org/2000/svg" xmlns:xlink="http://www.w3.org/1999/xlink" width="500" zoomAndPan="magnify" viewBox="0 0 375 374.999991" height="500" preserveAspectRatio="xMidYMid meet" version="1.0"><defs><clipPath id="a6e882f2aa"><path d="M 166 7.59375 L 212 7.59375 L 212 99 L 166 99 Z M 166 7.59375 " clip-rule="nonzero"/></clipPath><clipPath id="fde499576f"><path d="M 7.59375 166 L 99 166 L 99 212 L 7.59375 212 Z M 7.59375 166 " clip-rule="nonzero"/></clipPath><clipPath id="17c07763d1"><path d="M 166 279 L 212 279 L 212 370.59375 L 166 370.59375 Z M 166 279 " clip-rule="nonzero"/></clipPath><clipPath id="53f51eb473"><path d="M 279 166 L 370.59375 166 L 370.59375 212 L 279 212 Z M 279 166 " clip-rule="nonzero"/></clipPath></defs><g clip-path="url(#a6e882f2aa)"><path fill="#5ce1e6" d="M 189.09375 98.34375 C 201.601562 98.34375 211.78125 88.164062 211.78125 75.65625 L 211.78125 30.28125 C 211.78125 17.773438 201.601562 7.59375 189.09375 7.59375 C 176.585938 7.59375 166.40625 17.773438 166.40625 30.28125 L 166.40625 75.65625 C 166.40625 88.164062 176.585938 98.34375 189.09375 98.34375 Z M 189.09375 98.34375 " fill-opacity="1" fill-rule="nonzero"/></g><g clip-path="url(#fde499576f)"><path fill="#5ce1e6" d="M 75.65625 166.40625 L 30.28125 166.40625 C 17.773438 166.40625 7.59375 176.585938 7.59375 189.09375 C 7.59375 201.601562 17.773438 211.78125 30.28125 211.78125 L 75.65625 211.78125 C 88.164062 211.78125 98.34375 201.601562 98.34375 189.09375 C 98.34375 176.585938 88.164062 166.40625 75.65625 166.40625 Z M 75.65625 166.40625 " fill-opacity="1" fill-rule="nonzero"/></g><path fill="#5ce1e6" d="M 60.757812 317.429688 C 65.042969 321.71875 70.738281 324.078125 76.796875 324.078125 C 82.855469 324.078125 88.550781 321.71875 92.839844 317.429688 L 124.917969 285.347656 C 133.757812 276.507812 133.757812 262.105469 124.917969 253.265625 C 116.078125 244.425781 101.679688 244.425781 92.839844 253.265625 L 60.757812 285.347656 C 51.917969 294.1875 51.917969 308.589844 60.757812 317.429688 Z M 60.757812 317.429688 " fill-opacity="1" fill-rule="nonzero"/><g clip-path="url(#17c07763d1)"><path fill="#5ce1e6" d="M 166.40625 347.90625 C 166.40625 360.414062 176.585938 370.59375 189.09375 370.59375 C 201.601562 370.59375 211.78125 360.414062 211.78125 347.90625 L 211.78125 302.53125 C 211.78125 290.023438 201.601562 279.84375 189.09375 279.84375 C 176.585938 279.84375 166.40625 290.023438 166.40625 302.53125 Z M 166.40625 347.90625 " fill-opacity="1" fill-rule="nonzero"/></g><path fill="#5ce1e6" d="M 253.269531 285.347656 L 285.347656 317.429688 C 289.636719 321.71875 295.332031 324.078125 301.390625 324.078125 C 307.449219 324.078125 313.144531 321.71875 317.429688 317.429688 C 326.269531 308.589844 326.269531 294.1875 317.429688 285.347656 L 285.347656 253.265625 C 276.507812 244.425781 262.109375 244.425781 253.269531 253.265625 C 244.425781 262.105469 244.425781 276.507812 253.269531 285.347656 Z M 253.269531 285.347656 " fill-opacity="1" fill-rule="nonzero"/><g clip-path="url(#53f51eb473)"><path fill="#5ce1e6" d="M 347.90625 166.40625 L 302.53125 166.40625 C 290.023438 166.40625 279.84375 176.585938 279.84375 189.09375 C 279.84375 201.601562 290.023438 211.78125 302.53125 211.78125 L 347.90625 211.78125 C 360.414062 211.78125 370.59375 201.601562 370.59375 189.09375 C 370.59375 176.585938 360.414062 166.40625 347.90625 166.40625 Z M 347.90625 166.40625 " fill-opacity="1" fill-rule="nonzero"/></g><path fill="#5ce1e6" d="M 269.308594 131.566406 C 275.367188 131.566406 281.0625 129.207031 285.347656 124.917969 L 317.429688 92.835938 C 326.269531 83.996094 326.269531 69.597656 317.429688 60.753906 C 308.589844 51.914062 294.191406 51.914062 285.347656 60.753906 L 253.269531 92.835938 C 244.425781 101.675781 244.425781 116.078125 253.269531 124.917969 C 257.554688 129.207031 263.25 131.566406 269.308594 131.566406 Z M 269.308594 131.566406 " fill-opacity="1" fill-rule="nonzero"/></svg>