<svg xmlns="http://www.w3.org/2000/svg" xmlns:xlink="http://www.w3.org/1999/xlink" width="500" zoomAndPan="magnify" viewBox="0 0 375 374.999991" height="500" preserveAspectRatio="xMidYMid meet" version="1.0"><defs><clipPath id="d8fb61734a"><path d="M 3.210938 3.210938 L 371.460938 3.210938 L 371.460938 371.460938 L 3.210938 371.460938 Z M 3.210938 3.210938 " clip-rule="nonzero"/></clipPath></defs><g clip-path="url(#d8fb61734a)"><path fill="#f3f4f4" d="M 365.496094 371.433594 L 9.207031 371.433594 C 5.980469 371.433594 3.367188 368.820312 3.367188 365.59375 L 3.367188 332.308594 C 3.367188 276.9375 48.417969 231.886719 103.789062 231.886719 L 270.910156 231.886719 C 326.285156 231.886719 371.335938 276.9375 371.335938 332.308594 L 371.335938 365.59375 C 371.335938 368.820312 368.71875 371.433594 365.496094 371.433594 Z M 187.351562 216.183594 C 128.632812 216.183594 80.863281 168.414062 80.863281 109.695312 C 80.863281 50.980469 128.632812 3.210938 187.351562 3.210938 C 246.066406 3.210938 293.835938 50.980469 293.835938 109.695312 C 293.835938 168.414062 246.066406 216.183594 187.351562 216.183594 Z M 187.351562 216.183594 " fill-opacity="1" fill-rule="nonzero"/></g></svg>