<svg xmlns="http://www.w3.org/2000/svg" xmlns:xlink="http://www.w3.org/1999/xlink" width="500" zoomAndPan="magnify" viewBox="0 0 375 374.999991" height="500" preserveAspectRatio="xMidYMid meet" version="1.0"><defs><clipPath id="7e53b200e7"><path d="M 4.273438 70.234375 L 248 70.234375 L 248 278 L 4.273438 278 Z M 4.273438 70.234375 " clip-rule="nonzero"/></clipPath><clipPath id="a710205bd3"><path d="M 169 138 L 371.023438 138 L 371.023438 304 L 169 304 Z M 169 138 " clip-rule="nonzero"/></clipPath></defs><g clip-path="url(#7e53b200e7)"><path fill="#f3f4f4" d="M 153.144531 221.878906 L 153.144531 155.609375 C 153.144531 138.480469 166.410156 124.589844 182.773438 124.589844 L 247.597656 124.589844 L 247.597656 108.792969 C 247.597656 87.601562 231.171875 70.417969 210.933594 70.417969 L 40.933594 70.417969 C 20.691406 70.417969 4.273438 87.601562 4.273438 108.796875 L 4.273438 190.789062 C 4.273438 211.980469 20.691406 229.167969 40.933594 229.167969 L 68.984375 229.167969 L 68.984375 274.472656 C 68.984375 276.972656 72.417969 278.734375 74.199219 276.636719 C 87.566406 260.8125 100.925781 244.992188 114.296875 229.171875 L 153.996094 229.171875 C 153.453125 226.824219 153.144531 224.394531 153.144531 221.878906 Z M 153.144531 221.878906 " fill-opacity="1" fill-rule="nonzero"/></g><g clip-path="url(#a710205bd3)"><path fill="#f3f4f4" d="M 169.960938 166.535156 L 169.960938 240.511719 C 169.960938 255.957031 181.929688 268.488281 196.695312 268.488281 L 267.148438 268.488281 C 276.894531 280.023438 286.632812 291.554688 296.378906 303.089844 C 297.675781 304.628906 300.175781 303.339844 300.175781 301.519531 L 300.175781 268.488281 L 344.292969 268.488281 C 359.054688 268.488281 371.023438 255.957031 371.023438 240.511719 L 371.023438 166.535156 C 371.023438 151.085938 359.054688 138.554688 344.292969 138.554688 L 196.695312 138.554688 C 181.929688 138.554688 169.960938 151.082031 169.960938 166.535156 Z M 169.960938 166.535156 " fill-opacity="1" fill-rule="nonzero"/></g></svg>