<svg xmlns="http://www.w3.org/2000/svg" xmlns:xlink="http://www.w3.org/1999/xlink" width="500" zoomAndPan="magnify" viewBox="0 0 375 374.999991" height="500" preserveAspectRatio="xMidYMid meet" version="1.0"><defs><clipPath id="8e847955f8"><path d="M 5.199219 66.042969 L 370 66.042969 L 370 309.042969 L 5.199219 309.042969 Z M 5.199219 66.042969 " clip-rule="nonzero"/></clipPath></defs><g clip-path="url(#8e847955f8)"><path fill="#000000" d="M 161.585938 309.042969 C 162.894531 309.042969 164.210938 308.75 165.421875 308.144531 C 168.375 306.691406 170.246094 303.6875 170.246094 300.394531 L 170.246094 231.214844 L 360.765625 231.214844 C 365.546875 231.214844 369.425781 227.347656 369.425781 222.566406 L 369.425781 153.382812 C 369.425781 148.609375 365.546875 144.734375 360.765625 144.734375 L 170.246094 144.734375 L 170.246094 75.554688 C 170.246094 72.269531 168.375 69.257812 165.421875 67.804688 C 162.460938 66.363281 158.9375 66.699219 156.320312 68.6875 L 9.101562 181.109375 C 6.96875 182.742188 5.707031 185.277344 5.707031 187.972656 C 5.707031 190.671875 6.96875 193.207031 9.109375 194.839844 L 156.328125 307.261719 C 157.863281 308.445312 159.714844 309.042969 161.585938 309.042969 Z M 161.585938 309.042969 " fill-opacity="1" fill-rule="nonzero"/></g></svg>