<svg xmlns="http://www.w3.org/2000/svg" xmlns:xlink="http://www.w3.org/1999/xlink" width="500" zoomAndPan="magnify" viewBox="0 0 375 374.999991" height="500" preserveAspectRatio="xMidYMid meet" version="1.0"><defs><clipPath id="08393dff89"><path d="M 7 7 L 368 7 L 368 369 L 7 369 Z M 7 7 " clip-rule="nonzero"/></clipPath><clipPath id="3259cb13c8"><path d="M 184.425781 7.574219 C 85.09375 9.523438 6.207031 91.414062 7.183594 190.851562 C 9.128906 290.285156 90.933594 369.25 190.269531 368.277344 C 289.605469 366.324219 368.488281 284.4375 367.515625 185 C 365.566406 85.566406 283.761719 5.625 184.425781 7.574219 Z M 134.757812 37.796875 C 124.046875 52.417969 114.308594 70.941406 107.492188 92.386719 L 60.746094 92.386719 C 79.25 68.015625 104.570312 48.519531 134.757812 37.796875 Z M 47.109375 113.835938 L 100.671875 113.835938 C 95.804688 133.332031 93.855469 154.78125 92.882812 177.203125 L 29.582031 177.203125 C 30.554688 154.78125 37.371094 133.332031 47.109375 113.835938 Z M 29.582031 198.648438 L 92.882812 198.648438 C 93.855469 221.070312 95.804688 242.519531 100.671875 262.015625 L 47.109375 262.015625 C 37.371094 242.519531 30.554688 221.070312 29.582031 198.648438 Z M 60.746094 282.488281 L 107.492188 282.488281 C 114.308594 303.933594 124.046875 323.429688 134.757812 337.078125 C 104.570312 326.355469 79.25 307.832031 60.746094 282.488281 Z M 177.609375 344.878906 C 154.238281 337.078125 137.679688 305.882812 129.890625 282.488281 L 177.609375 282.488281 Z M 177.609375 262.015625 L 123.074219 262.015625 C 118.203125 242.519531 115.28125 221.070312 114.308594 198.648438 L 177.609375 198.648438 Z M 177.609375 177.203125 L 114.308594 177.203125 C 115.28125 154.78125 118.203125 133.332031 123.074219 113.835938 L 177.609375 113.835938 Z M 177.609375 92.386719 L 129.890625 92.386719 C 138.65625 68.992188 154.238281 37.796875 177.609375 29.996094 Z M 346.089844 177.203125 L 282.789062 177.203125 C 281.8125 154.78125 279.867188 133.332031 274.996094 113.835938 L 328.558594 113.835938 C 338.296875 133.332031 345.113281 154.78125 346.089844 177.203125 Z M 314.925781 92.386719 L 268.179688 92.386719 C 261.363281 70.941406 251.625 51.445312 240.910156 37.796875 C 271.101562 48.519531 296.421875 68.015625 314.925781 92.386719 Z M 198.0625 30.972656 C 221.433594 38.769531 237.988281 69.964844 245.78125 93.363281 L 198.0625 93.363281 Z M 198.0625 113.835938 L 252.597656 113.835938 C 257.464844 133.332031 260.386719 154.78125 261.363281 177.203125 L 198.0625 177.203125 Z M 198.0625 198.648438 L 261.363281 198.648438 C 260.386719 221.070312 257.464844 242.519531 252.597656 262.015625 L 198.0625 262.015625 Z M 198.0625 344.878906 L 198.0625 282.488281 L 245.78125 282.488281 C 237.988281 305.882812 222.40625 337.078125 198.0625 344.878906 Z M 240.910156 337.078125 C 251.625 322.457031 261.363281 303.933594 268.179688 282.488281 L 314.925781 282.488281 C 296.421875 307.832031 271.101562 326.355469 240.910156 337.078125 Z M 328.558594 262.015625 L 274.996094 262.015625 C 279.867188 242.519531 281.8125 221.070312 282.789062 198.648438 L 346.089844 198.648438 C 345.113281 221.070312 338.296875 242.519531 328.558594 262.015625 Z M 328.558594 262.015625 " clip-rule="evenodd"/></clipPath><linearGradient x1="-179.419035" gradientTransform="matrix(3.82383, 0, 0, 3.827743, 694.744068, -582.259686)" y1="152.963834" x2="-86.078133" gradientUnits="userSpaceOnUse" y2="249.311515" id="9de133eaea"><stop stop-opacity="1" stop-color="rgb(95.298767%, 95.698547%, 95.698547%)" offset="0"/><stop stop-opacity="1" stop-color="rgb(95.393372%, 95.785522%, 95.785522%)" offset="0.0625"/><stop stop-opacity="1" stop-color="rgb(95.640564%, 96.011353%, 96.011353%)" offset="0.125"/><stop stop-opacity="1" stop-color="rgb(95.94574%, 96.290588%, 96.290588%)" offset="0.1875"/><stop stop-opacity="1" stop-color="rgb(96.250916%, 96.569824%, 96.569824%)" offset="0.25"/><stop stop-opacity="1" stop-color="rgb(96.556091%, 96.84906%, 96.84906%)" offset="0.3125"/><stop stop-opacity="1" stop-color="rgb(96.861267%, 97.128296%, 97.128296%)" offset="0.375"/><stop stop-opacity="1" stop-color="rgb(97.166443%, 97.406006%, 97.406006%)" offset="0.4375"/><stop stop-opacity="1" stop-color="rgb(97.471619%, 97.685242%, 97.685242%)" offset="0.491383"/><stop stop-opacity="1" stop-color="rgb(97.624207%, 97.825623%, 97.825623%)" offset="0.5"/><stop stop-opacity="1" stop-color="rgb(97.776794%, 97.964478%, 97.964478%)" offset="0.508617"/><stop stop-opacity="1" stop-color="rgb(97.929382%, 98.104858%, 98.104858%)" offset="0.5625"/><stop stop-opacity="1" stop-color="rgb(98.080444%, 98.243713%, 98.243713%)" offset="0.625"/><stop stop-opacity="1" stop-color="rgb(98.38562%, 98.522949%, 98.522949%)" offset="0.6875"/><stop stop-opacity="1" stop-color="rgb(98.690796%, 98.802185%, 98.802185%)" offset="0.75"/><stop stop-opacity="1" stop-color="rgb(98.995972%, 99.081421%, 99.081421%)" offset="0.8125"/><stop stop-opacity="1" stop-color="rgb(99.301147%, 99.359131%, 99.359131%)" offset="0.875"/><stop stop-opacity="1" stop-color="rgb(99.606323%, 99.638367%, 99.638367%)" offset="0.9375"/><stop stop-opacity="1" stop-color="rgb(99.879456%, 99.888611%, 99.888611%)" offset="1"/></linearGradient></defs><g clip-path="url(#08393dff89)"><g clip-path="url(#3259cb13c8)"><path fill="url(#9de133eaea)" d="M 6.222656 5.625 L 6.222656 369.25 L 368.472656 369.25 L 368.472656 5.625 Z M 6.222656 5.625 " fill-rule="nonzero"/></g></g></svg>