<svg xmlns="http://www.w3.org/2000/svg" xmlns:xlink="http://www.w3.org/1999/xlink" width="500" zoomAndPan="magnify" viewBox="0 0 375 374.999991" height="500" preserveAspectRatio="xMidYMid meet" version="1.0"><defs><clipPath id="693a4fdec3"><path d="M 21.335938 62 L 87 62 L 87 77 L 21.335938 77 Z M 21.335938 62 " clip-rule="nonzero"/></clipPath><clipPath id="96bfa969d9"><path d="M 21.335938 121 L 87 121 L 87 136 L 21.335938 136 Z M 21.335938 121 " clip-rule="nonzero"/></clipPath><clipPath id="8ea77efaa7"><path d="M 21.335938 180 L 87 180 L 87 195 L 21.335938 195 Z M 21.335938 180 " clip-rule="nonzero"/></clipPath><clipPath id="dd090f9249"><path d="M 21.335938 239 L 87 239 L 87 254 L 21.335938 254 Z M 21.335938 239 " clip-rule="nonzero"/></clipPath><clipPath id="00ee03fe34"><path d="M 21.335938 298 L 87 298 L 87 313 L 21.335938 313 Z M 21.335938 298 " clip-rule="nonzero"/></clipPath><clipPath id="3da25310d0"><path d="M 44 9.070312 L 301 9.070312 L 301 366.070312 L 44 366.070312 Z M 44 9.070312 " clip-rule="nonzero"/></clipPath><clipPath id="59744030ca"><path d="M 197 107 L 352.886719 107 L 352.886719 320 L 197 320 Z M 197 107 " clip-rule="nonzero"/></clipPath></defs><g clip-path="url(#693a4fdec3)"><path fill="#f3f4f4" d="M 79.164062 76.894531 L 28.992188 76.894531 C 24.9375 76.894531 21.644531 73.597656 21.644531 69.542969 C 21.644531 65.484375 24.9375 62.15625 28.992188 62.15625 L 79.164062 62.15625 C 83.25 62.15625 86.542969 65.453125 86.542969 69.542969 C 86.542969 73.597656 83.25 76.894531 79.164062 76.894531 " fill-opacity="1" fill-rule="nonzero"/></g><g clip-path="url(#96bfa969d9)"><path fill="#f3f4f4" d="M 79.164062 135.910156 L 28.992188 135.910156 C 24.9375 135.910156 21.644531 132.613281 21.644531 128.558594 C 21.644531 124.46875 24.9375 121.171875 28.992188 121.171875 L 79.164062 121.171875 C 83.25 121.171875 86.542969 124.46875 86.542969 128.558594 C 86.542969 132.613281 83.25 135.910156 79.164062 135.910156 " fill-opacity="1" fill-rule="nonzero"/></g><g clip-path="url(#8ea77efaa7)"><path fill="#f3f4f4" d="M 79.164062 194.921875 L 28.992188 194.921875 C 24.9375 194.921875 21.644531 191.628906 21.644531 187.570312 C 21.644531 183.515625 24.9375 180.21875 28.992188 180.21875 L 79.164062 180.21875 C 83.25 180.21875 86.542969 183.515625 86.542969 187.570312 C 86.542969 191.628906 83.25 194.921875 79.164062 194.921875 " fill-opacity="1" fill-rule="nonzero"/></g><g clip-path="url(#dd090f9249)"><path fill="#f3f4f4" d="M 79.164062 253.9375 L 28.992188 253.9375 C 24.9375 253.9375 21.644531 250.671875 21.644531 246.585938 C 21.644531 242.527344 24.9375 239.230469 28.992188 239.230469 L 79.164062 239.230469 C 83.25 239.230469 86.542969 242.527344 86.542969 246.585938 C 86.542969 250.671875 83.25 253.9375 79.164062 253.9375 " fill-opacity="1" fill-rule="nonzero"/></g><g clip-path="url(#00ee03fe34)"><path fill="#f3f4f4" d="M 79.164062 312.984375 L 28.992188 312.984375 C 24.9375 312.984375 21.644531 309.6875 21.644531 305.628906 C 21.644531 301.542969 24.9375 298.246094 28.992188 298.246094 L 79.164062 298.246094 C 83.25 298.246094 86.542969 301.542969 86.542969 305.628906 C 86.542969 309.6875 83.25 312.984375 79.164062 312.984375 " fill-opacity="1" fill-rule="nonzero"/></g><g clip-path="url(#3da25310d0)"><path fill="#f3f4f4" d="M 127.941406 209.566406 C 127.941406 203.480469 132.882812 198.503906 138.996094 198.503906 L 197.625 198.503906 C 203.738281 198.503906 208.679688 203.480469 208.679688 209.566406 C 208.679688 215.683594 203.738281 220.628906 197.625 220.628906 L 138.996094 220.628906 C 132.882812 220.628906 127.941406 215.683594 127.941406 209.566406 Z M 138.996094 137.683594 L 231.417969 137.683594 C 237.5 137.683594 242.441406 142.628906 242.441406 148.746094 C 242.441406 154.832031 237.5 159.773438 231.417969 159.773438 L 138.996094 159.773438 C 132.882812 159.773438 127.941406 154.832031 127.941406 148.746094 C 127.941406 142.628906 132.882812 137.683594 138.996094 137.683594 Z M 138.996094 76.863281 L 231.417969 76.863281 C 237.5 76.863281 242.441406 81.808594 242.441406 87.925781 C 242.441406 94.011719 237.5 98.953125 231.417969 98.953125 L 138.996094 98.953125 C 132.882812 98.953125 127.941406 94.011719 127.941406 87.925781 C 127.941406 81.808594 132.882812 76.863281 138.996094 76.863281 Z M 266.007812 280.433594 L 201.929688 326.484375 C 200.632812 327.402344 199.144531 327.878906 197.625 327.878906 C 196.199219 327.878906 194.773438 327.4375 193.539062 326.613281 C 191.003906 324.933594 189.769531 321.824219 190.464844 318.816406 L 208.488281 242.019531 C 208.679688 241.164062 209.027344 240.339844 209.5 239.613281 L 300.089844 103.707031 L 300.089844 40.511719 C 300.089844 23.175781 287.324219 9.070312 271.644531 9.070312 L 72.859375 9.070312 C 57.152344 9.070312 44.386719 23.175781 44.386719 40.511719 L 44.386719 334.628906 C 44.386719 351.96875 57.152344 366.070312 72.859375 366.070312 L 271.644531 366.070312 C 287.324219 366.070312 300.089844 351.96875 300.089844 334.628906 L 300.089844 237.425781 C 300.089844 235.617188 299.359375 234.035156 298.3125 232.765625 L 267.8125 278.53125 C 267.335938 279.261719 266.703125 279.925781 266.007812 280.433594 " fill-opacity="1" fill-rule="nonzero"/></g><g clip-path="url(#59744030ca)"><path fill="#f3f4f4" d="M 223.753906 251.878906 L 212.796875 298.59375 L 251.753906 270.578125 L 338.316406 140.726562 L 310.320312 122.027344 Z M 203.167969 319.132812 C 201.996094 319.132812 200.824219 318.785156 199.777344 318.085938 C 197.6875 316.691406 196.671875 314.09375 197.242188 311.652344 L 212.128906 248.042969 C 212.320312 247.3125 212.605469 246.648438 212.984375 246.046875 L 303.570312 110.175781 C 305.410156 107.386719 309.210938 106.625 311.996094 108.496094 L 350.164062 133.945312 C 351.496094 134.832031 352.445312 136.226562 352.761719 137.8125 C 353.078125 139.394531 352.761719 141.042969 351.84375 142.40625 L 261.289062 278.277344 C 260.875 278.882812 260.371094 279.417969 259.765625 279.832031 L 206.714844 317.992188 C 205.667969 318.75 204.402344 319.132812 203.167969 319.132812 " fill-opacity="1" fill-rule="nonzero"/></g><path fill="#f3f4f4" d="M 241.300781 262.019531 C 240.128906 262.019531 238.957031 261.734375 237.914062 261.003906 C 235.125 259.136719 234.363281 255.363281 236.234375 252.574219 L 304.238281 150.488281 C 306.105469 147.699219 309.90625 146.90625 312.695312 148.808594 C 315.511719 150.679688 316.273438 154.449219 314.40625 157.269531 L 246.371094 259.324219 C 245.199219 261.101562 243.265625 262.019531 241.300781 262.019531 " fill-opacity="1" fill-rule="nonzero"/><path fill="#f3f4f4" d="M 329.226562 169.285156 C 328.085938 169.285156 326.914062 168.964844 325.871094 168.269531 L 289.699219 144.117188 C 286.910156 142.25 286.152344 138.476562 287.988281 135.6875 C 289.855469 132.867188 293.65625 132.105469 296.445312 133.976562 L 332.617188 158.128906 C 335.4375 159.996094 336.164062 163.769531 334.296875 166.558594 C 333.125 168.332031 331.191406 169.285156 329.226562 169.285156 " fill-opacity="1" fill-rule="nonzero"/></svg>