<svg xmlns="http://www.w3.org/2000/svg" xmlns:xlink="http://www.w3.org/1999/xlink" width="500" zoomAndPan="magnify" viewBox="0 0 375 374.999991" height="500" preserveAspectRatio="xMidYMid meet" version="1.0"><defs><clipPath id="e138423af2"><path d="M 5.003906 3.070312 L 327 3.070312 L 327 303 L 5.003906 303 Z M 5.003906 3.070312 " clip-rule="nonzero"/></clipPath><clipPath id="4bfd61840a"><path d="M 230 12 L 369.996094 12 L 369.996094 372 L 230 372 Z M 230 12 " clip-rule="nonzero"/></clipPath></defs><g clip-path="url(#e138423af2)"><path fill="#f3f4f4" d="M 9.277344 157.808594 L 66.578125 100.4375 C 71.648438 95.363281 79.875 95.363281 84.945312 100.4375 C 90.007812 105.515625 90.007812 113.742188 84.945312 118.820312 L 49.800781 154 L 148.371094 154 L 148.371094 21.40625 C 148.371094 16.535156 150.285156 11.949219 153.707031 8.519531 C 157.09375 5.125 161.789062 3.175781 166.585938 3.175781 L 326.359375 3.175781 L 234.351562 47.945312 C 216.429688 56.683594 204.851562 75.203125 204.851562 95.171875 L 204.851562 302.019531 L 166.585938 302.019531 C 161.789062 302.019531 157.097656 300.070312 153.710938 296.675781 C 150.289062 293.210938 148.375 288.625 148.375 283.75 L 148.375 205.992188 L 168.5625 205.992188 C 175.734375 205.992188 181.546875 200.175781 181.546875 192.996094 C 181.546875 185.816406 175.738281 179.996094 168.5625 179.996094 L 49.804688 179.996094 L 84.949219 215.175781 C 90.011719 220.253906 90.011719 228.480469 84.949219 233.558594 C 82.414062 236.09375 79.085938 237.367188 75.761719 237.367188 C 72.445312 237.367188 69.117188 236.09375 66.582031 233.558594 L 9.277344 176.191406 C 6.839844 173.753906 5.472656 170.449219 5.472656 167.003906 C 5.472656 163.558594 6.839844 160.246094 9.277344 157.808594 Z M 9.277344 157.808594 " fill-opacity="1" fill-rule="nonzero"/></g><g clip-path="url(#4bfd61840a)"><path fill="#f3f4f4" d="M 245.714844 71.339844 L 367.1875 12.199219 C 368.777344 14.910156 369.785156 18.050781 369.785156 21.40625 L 369.785156 286.890625 C 369.785156 299.023438 362.714844 310.289062 351.824219 315.597656 L 236.921875 371.523438 C 235.582031 372.175781 234.066406 372.101562 232.804688 371.308594 C 231.578125 370.550781 230.824219 369.140625 230.824219 367.695312 L 230.824219 95.171875 C 230.824219 85.097656 236.664062 75.746094 245.714844 71.339844 Z M 254.046875 224.359375 C 254.046875 231.542969 259.851562 237.355469 267.03125 237.355469 C 274.214844 237.355469 280.015625 231.542969 280.015625 224.359375 L 280.015625 180.054688 C 280.015625 172.871094 274.214844 167.058594 267.03125 167.058594 C 259.851562 167.058594 254.046875 172.871094 254.046875 180.054688 Z M 254.046875 224.359375 " fill-opacity="1" fill-rule="nonzero"/></g></svg>