<svg xmlns="http://www.w3.org/2000/svg" xmlns:xlink="http://www.w3.org/1999/xlink" width="500" zoomAndPan="magnify" viewBox="0 0 375 374.999991" height="500" preserveAspectRatio="xMidYMid meet" version="1.0"><defs><clipPath id="172113a3c4"><path d="M 3 214 L 161 214 L 161 370.996094 L 3 370.996094 Z M 3 214 " clip-rule="nonzero"/></clipPath></defs><g clip-path="url(#172113a3c4)"><path fill="#f3f4f4" d="M 153.941406 302.324219 L 145.546875 299.328125 C 146.148438 293.328125 145.847656 287.03125 144.949219 281.035156 L 153.039062 277.433594 C 158.136719 275.035156 160.234375 269.039062 157.835938 264.242188 L 153.039062 254.046875 C 150.644531 248.945312 144.648438 246.847656 139.855469 249.246094 L 131.761719 252.84375 C 127.867188 248.046875 123.371094 243.847656 118.277344 240.25 L 121.273438 231.855469 C 123.070312 226.757812 120.375 220.757812 115.28125 218.960938 L 104.792969 215.0625 C 99.695312 213.261719 93.703125 215.960938 91.90625 221.058594 L 88.90625 229.453125 C 82.914062 228.855469 76.621094 229.15625 70.628906 230.054688 L 66.730469 221.65625 C 64.332031 216.558594 58.339844 214.460938 53.546875 216.859375 L 43.355469 221.65625 C 38.261719 224.058594 36.164062 230.054688 38.5625 234.851562 L 42.15625 242.949219 C 37.363281 246.847656 33.167969 251.347656 29.570312 256.445312 L 21.179688 253.445312 C 16.085938 251.644531 10.089844 254.34375 8.292969 259.441406 L 4.398438 269.9375 C 3.496094 272.335938 3.496094 275.035156 4.695312 277.734375 C 5.894531 280.132812 7.691406 281.933594 10.390625 282.832031 L 18.78125 285.832031 C 18.183594 291.828125 18.480469 298.125 19.382812 304.125 L 11.289062 307.722656 C 6.195312 310.121094 4.097656 316.121094 6.496094 320.917969 L 11.289062 331.113281 C 13.6875 336.210938 19.679688 338.308594 24.476562 335.910156 L 32.566406 332.3125 C 36.464844 337.109375 40.957031 341.308594 46.054688 344.90625 L 43.054688 353.304688 C 42.15625 355.703125 42.15625 358.402344 43.355469 361.101562 C 44.554688 363.5 46.351562 365.300781 49.050781 366.199219 L 59.539062 370.097656 C 61.9375 370.996094 64.632812 370.996094 67.332031 369.796875 C 69.726562 368.597656 71.527344 366.796875 72.425781 364.101562 L 75.421875 355.703125 C 81.414062 356.304688 87.710938 356.003906 93.703125 355.105469 L 97.300781 363.199219 C 99.695312 368.296875 105.691406 370.398438 110.484375 368 L 120.675781 363.199219 C 125.769531 360.800781 127.867188 354.804688 125.46875 350.003906 L 121.875 341.910156 C 126.667969 338.011719 130.863281 333.511719 134.460938 328.414062 L 142.851562 331.414062 C 145.25 332.3125 148.246094 332.3125 150.644531 331.113281 C 153.039062 329.914062 154.839844 328.113281 155.738281 325.414062 L 159.632812 314.921875 C 161.730469 310.121094 159.035156 304.425781 153.941406 302.324219 Z M 98.796875 328.714844 C 93.402344 331.113281 88.007812 332.3125 82.316406 332.3125 C 66.730469 332.3125 52.644531 323.316406 46.351562 309.222656 C 37.0625 289.429688 46.054688 265.738281 65.832031 256.445312 C 71.226562 254.046875 76.621094 252.84375 82.316406 252.84375 C 97.898438 252.84375 111.984375 261.839844 118.277344 275.9375 C 127.269531 296.027344 118.578125 319.417969 98.796875 328.714844 Z M 98.796875 328.714844 " fill-opacity="1" fill-rule="nonzero"/></g><path fill="#f3f4f4" d="M 358.324219 154.484375 L 344.238281 149.386719 C 345.4375 139.191406 344.839844 128.695312 343.042969 118.5 L 356.527344 112.203125 C 364.917969 108.304688 368.8125 98.410156 364.917969 89.710938 L 357.125 72.617188 C 353.230469 64.222656 343.339844 60.324219 334.648438 64.222656 L 321.164062 70.519531 C 314.570312 62.421875 306.78125 55.226562 298.386719 49.527344 L 303.484375 35.433594 C 306.78125 26.738281 302.285156 16.84375 293.59375 13.84375 L 275.910156 7.246094 C 267.519531 4.246094 257.332031 8.746094 254.335938 17.140625 L 249.238281 31.234375 C 239.050781 30.035156 228.5625 30.636719 218.371094 32.4375 L 212.078125 18.941406 C 208.183594 10.542969 198.292969 6.644531 189.601562 10.542969 L 172.519531 18.339844 C 164.128906 22.238281 160.234375 32.136719 164.128906 40.832031 L 170.421875 54.328125 C 162.332031 60.925781 155.136719 68.722656 149.445312 77.117188 L 135.359375 72.019531 C 126.96875 69.019531 116.777344 73.519531 113.78125 81.914062 L 107.1875 99.609375 C 105.691406 103.804688 105.691406 108.304688 107.789062 112.503906 C 109.585938 116.699219 113.183594 119.699219 117.378906 121.199219 L 131.464844 126.296875 C 130.265625 136.492188 130.5625 146.988281 132.660156 157.183594 L 119.175781 163.480469 C 110.785156 167.378906 106.890625 177.277344 110.785156 185.972656 L 118.578125 203.066406 C 122.472656 211.460938 132.363281 215.359375 141.054688 211.460938 L 154.539062 205.164062 C 161.132812 213.261719 168.925781 220.457031 177.316406 226.15625 L 172.21875 240.25 C 170.722656 244.449219 170.722656 248.945312 172.820312 253.144531 C 174.617188 257.34375 178.214844 260.34375 182.410156 261.839844 L 200.089844 268.4375 C 204.285156 269.9375 208.78125 269.9375 212.976562 267.839844 C 217.171875 266.039062 220.171875 262.441406 221.667969 258.242188 L 226.761719 244.148438 C 236.953125 245.347656 247.441406 245.046875 257.632812 242.949219 L 263.925781 256.445312 C 267.820312 264.839844 277.710938 268.738281 286.402344 264.839844 L 303.484375 257.042969 C 311.875 253.144531 315.769531 243.25 311.875 234.554688 L 305.582031 221.058594 C 313.671875 214.460938 320.863281 206.664062 326.558594 198.269531 L 340.644531 203.367188 C 344.839844 204.863281 349.335938 204.863281 353.53125 202.765625 C 357.726562 200.964844 360.722656 197.367188 362.222656 193.167969 L 368.8125 175.476562 C 371.511719 167.378906 367.015625 157.785156 358.324219 154.484375 Z M 265.722656 198.566406 C 257.03125 202.765625 247.441406 204.566406 237.851562 204.566406 C 211.777344 204.566406 188.105469 189.269531 177.316406 165.882812 C 161.730469 132.59375 176.417969 92.710938 209.679688 77.417969 C 218.371094 73.21875 227.960938 71.417969 237.550781 71.417969 C 263.625 71.417969 287.300781 86.714844 298.089844 110.105469 C 313.671875 143.390625 298.988281 183.273438 265.722656 198.566406 Z M 265.722656 198.566406 " fill-opacity="1" fill-rule="nonzero"/></svg>