<svg xmlns="http://www.w3.org/2000/svg" xmlns:xlink="http://www.w3.org/1999/xlink" width="500" zoomAndPan="magnify" viewBox="0 0 375 374.999991" height="500" preserveAspectRatio="xMidYMid meet" version="1.0"><defs><clipPath id="aa95832b51"><path d="M 288 123 L 327.175781 123 L 327.175781 139 L 288 139 Z M 288 123 " clip-rule="nonzero"/></clipPath><clipPath id="d9507e803c"><path d="M 48.175781 123 L 88 123 L 88 139 L 48.175781 139 Z M 48.175781 123 " clip-rule="nonzero"/></clipPath></defs><path fill="#f3f4f4" d="M 186.382812 50.90625 C 182.199219 50.90625 178.78125 47.492188 178.78125 43.316406 L 178.78125 19.511719 C 178.78125 15.335938 182.199219 11.921875 186.382812 11.921875 C 190.5625 11.921875 193.984375 15.335938 193.984375 19.511719 L 193.984375 43.316406 C 193.984375 47.492188 190.5625 50.90625 186.382812 50.90625 Z M 186.382812 50.90625 " fill-opacity="1" fill-rule="nonzero"/><g clip-path="url(#aa95832b51)"><path fill="#f3f4f4" d="M 319.761719 138.523438 L 295.929688 138.523438 C 291.75 138.523438 288.328125 135.105469 288.328125 130.929688 C 288.328125 126.753906 291.75 123.335938 295.929688 123.335938 L 319.761719 123.335938 C 323.945312 123.335938 327.363281 126.753906 327.363281 130.929688 C 327.363281 135.105469 323.945312 138.523438 319.761719 138.523438 Z M 319.761719 138.523438 " fill-opacity="1" fill-rule="nonzero"/></g><g clip-path="url(#d9507e803c)"><path fill="#f3f4f4" d="M 79.609375 138.523438 L 55.777344 138.523438 C 51.59375 138.523438 48.175781 135.105469 48.175781 130.929688 C 48.175781 126.753906 51.59375 123.335938 55.777344 123.335938 L 79.609375 123.335938 C 83.789062 123.335938 87.210938 126.753906 87.210938 130.929688 C 87.210938 135.105469 83.789062 138.523438 79.609375 138.523438 Z M 79.609375 138.523438 " fill-opacity="1" fill-rule="nonzero"/></g><path fill="#f3f4f4" d="M 109.410156 83.476562 C 107.472656 83.476562 105.53125 82.71875 104.050781 81.238281 L 87.210938 64.421875 C 84.246094 61.460938 84.246094 56.640625 87.210938 53.679688 C 90.175781 50.71875 95.003906 50.71875 97.96875 53.679688 L 114.808594 70.496094 C 117.773438 73.457031 117.773438 78.277344 114.808594 81.238281 C 113.289062 82.71875 111.347656 83.476562 109.410156 83.476562 Z M 109.410156 83.476562 " fill-opacity="1" fill-rule="nonzero"/><path fill="#f3f4f4" d="M 265.066406 83.476562 C 263.125 83.476562 261.1875 82.71875 259.707031 81.238281 C 256.742188 78.277344 256.742188 73.457031 259.707031 70.496094 L 276.542969 53.679688 C 279.507812 50.71875 284.335938 50.71875 287.300781 53.679688 C 290.265625 56.640625 290.265625 61.460938 287.300781 64.421875 L 270.460938 81.238281 C 268.980469 82.71875 267.042969 83.476562 265.066406 83.476562 Z M 265.066406 83.476562 " fill-opacity="1" fill-rule="nonzero"/><path fill="#f3f4f4" d="M 236.785156 264.820312 L 140.238281 264.820312 C 136.054688 264.820312 132.636719 261.40625 132.636719 257.230469 L 132.636719 253.089844 C 132.636719 236.652344 127.046875 220.367188 116.480469 205.941406 C 105.230469 190.605469 99.261719 172.421875 99.261719 153.367188 C 99.261719 128.878906 109.523438 105.191406 127.425781 88.414062 C 145.558594 71.40625 169.316406 62.863281 194.210938 64.421875 C 240.320312 67.304688 277 105.722656 277.761719 151.886719 C 278.101562 172.347656 271.679688 191.707031 259.171875 207.839844 C 249.671875 220.140625 244.425781 236.273438 244.425781 253.28125 L 244.425781 257.265625 C 244.386719 261.441406 241.003906 264.820312 236.785156 264.820312 Z M 147.800781 249.636719 L 229.296875 249.636719 C 230.019531 230.617188 236.289062 212.585938 247.160156 198.539062 C 257.539062 185.140625 262.859375 169.082031 262.59375 152.113281 C 261.949219 113.808594 231.539062 81.921875 193.300781 79.566406 C 172.621094 78.277344 152.933594 85.339844 137.878906 99.460938 C 122.828125 113.582031 114.503906 132.753906 114.503906 153.367188 C 114.503906 169.195312 119.445312 184.265625 128.757812 196.984375 C 140.503906 213.042969 147.039062 231.1875 147.800781 249.636719 Z M 147.800781 249.636719 " fill-opacity="1" fill-rule="nonzero"/><path fill="#f3f4f4" d="M 237.695312 294.089844 L 139.363281 294.089844 C 135.179688 294.089844 131.761719 290.671875 131.761719 286.496094 C 131.761719 282.320312 135.179688 278.90625 139.363281 278.90625 L 237.660156 278.90625 C 241.839844 278.90625 245.261719 282.320312 245.261719 286.496094 C 245.261719 290.671875 241.878906 294.089844 237.695312 294.089844 Z M 237.695312 294.089844 " fill-opacity="1" fill-rule="nonzero"/><path fill="#f3f4f4" d="M 188.511719 363.027344 C 164.449219 363.027344 144.835938 343.476562 144.835938 319.410156 L 144.835938 313.601562 C 144.835938 309.425781 148.257812 306.011719 152.4375 306.011719 L 224.546875 306.011719 C 228.726562 306.011719 232.148438 309.425781 232.148438 313.601562 L 232.148438 319.410156 C 232.183594 343.476562 212.609375 363.027344 188.511719 363.027344 Z M 160.117188 321.195312 C 161.027344 336.039062 173.421875 347.84375 188.511719 347.84375 C 203.601562 347.84375 215.992188 336.039062 216.90625 321.195312 Z M 160.117188 321.195312 " fill-opacity="1" fill-rule="nonzero"/><path fill="#f3f4f4" d="M 203.144531 264.820312 L 173.914062 264.820312 C 170.417969 264.820312 167.375 262.46875 166.539062 259.089844 L 145.101562 173.828125 C 144.34375 170.828125 145.484375 167.675781 147.953125 165.855469 C 150.425781 164.03125 153.769531 163.882812 156.429688 165.476562 L 169.65625 173.484375 L 181.78125 149.875 C 183.074219 147.328125 185.699219 145.734375 188.550781 145.734375 C 191.398438 145.734375 194.023438 147.328125 195.316406 149.875 L 207.441406 173.484375 L 220.667969 165.476562 C 223.289062 163.882812 226.636719 164.03125 229.144531 165.855469 C 231.613281 167.675781 232.753906 170.828125 231.996094 173.828125 L 210.558594 259.089844 C 209.683594 262.46875 206.640625 264.820312 203.144531 264.820312 Z M 179.84375 249.636719 L 197.253906 249.636719 L 212.722656 188.0625 L 208.351562 190.71875 C 206.527344 191.820312 204.363281 192.125 202.347656 191.554688 C 200.332031 190.984375 198.621094 189.582031 197.632812 187.722656 L 188.550781 169.992188 L 179.464844 187.722656 C 178.515625 189.582031 176.804688 190.984375 174.75 191.554688 C 172.738281 192.125 170.53125 191.820312 168.746094 190.71875 L 164.375 188.0625 Z M 179.84375 249.636719 " fill-opacity="1" fill-rule="nonzero"/></svg>